<?xml version="1.0" encoding="UTF-8"?>
<svg xmlns="http://www.w3.org/2000/svg" viewBox="0 0 180 180" width="180" height="180">
  <rect width="180" height="180" rx="45" fill="#0b0b0b"/>
  <path d="M147.8 112.4L114 78.6c-6.8-6.8-16.9-8.1-25-4.1L64 44.3V27L21 0 0 21l27 37.3h17.3l36.9 36.9c-4 8.1-2.7 18.2 4.1 25l33.8 33.8c4.3 4.3 11.2 4.3 15.4 0l15.4-15.4c4.2-4.3 4.2-11.2 0-15.4zM97.3 65.9c8.3 0 16.1 3.2 21.9 9.1l5.7 5.7c4.6-2 9-4.8 12.8-8.6 10.9-10.9 14.6-26.1 11.1-40-0.6-2.6-4-3.5-5.9-1.6l-21.8 21.8-19.9-3.3-3.3-19.9 21.8-21.8c1.9-1.9 1-5.2-1.7-5.9-13.9-3.4-29.2.3-40 11.1-8.3 8.3-12.3 19.3-12.1 30.3l24 24c2.4-0.6 4.8-0.9 7.2-0.9zm-30.4 24l-16.6-16.6L5.5 118.1c-7.3 7.3-7.3 19.2 0 26.5s19.2 7.3 26.5 0l36.2-36.2c-2.2-5.8-2.9-12.2-1.5-18.4z" fill="#4a2f22"/>
</svg>